<svg xmlns="http://www.w3.org/2000/svg" viewBox="0 0 485.17 670.04"><defs><style>.cls-1{fill:#4f23e1;}</style></defs><g id="Layer_2" data-name="Layer 2"><g id="Layer_1-2" data-name="Layer 1"><path class="cls-1" d="M274.53,0,371,96.71c-2.41,2.6-7.1,8.05-12.17,13.13C307.36,161.38,256.06,213.1,204.06,264.12c-10,9.8-14.59,19.46-14.34,33.67.85,49,.93,98-.19,147-.22,9.63-4.74,21.29-11.27,28.27-26.87,28.72-55.27,56-82.17,82.87L0,459.79c3.4-3.69,7.69-8.69,12.33-13.33C63.8,394.91,115.09,343.17,167,292.1c10.45-10.28,15.42-20.5,15.12-35.55-1-48.32-1-96.69.21-145,.27-10.27,5.21-22.58,12.15-30.12C220.72,53,248.63,26.09,274.53,0Z"/><path class="cls-1" d="M211.38,670c-32.71-32.76-63.86-64-98.61-98.78,15.66-14.32,33.17-29.37,49.58-45.53,40.31-39.69,79.83-80.19,120.34-119.68,10.05-9.8,14.59-19.73,14.37-33.89-.74-49.07-.9-98.16.26-147.21.22-9.67,5-21.26,11.57-28.41,26.21-28.55,53.94-55.71,79.67-81.91l96.61,97.57c-1.67,1.81-6.34,7.23-11.37,12.27-52,52.09-104.48,103.74-155.73,156.58-7.43,7.66-12.54,20.81-12.84,31.59-1.34,49,0,98.14-1.09,147.2-.22,9.63-4.8,21.28-11.35,28.27C266.31,616.4,238.27,643.23,211.38,670Z"/></g></g></svg>